<svg xmlns="http://www.w3.org/2000/svg" version="1.1" xmlns:xlink="http://www.w3.org/1999/xlink" xmlns:svgjs="http://svgjs.dev/svgjs" id="BgenPttrnSvgRootPreview" width="100%" height="100%"><defs><pattern x="0" y="0" width="1" height="1" patternUnits="userSpaceOnUse" id="BgenPttrnLayer1"><g id="PatternRootContent1"><g id="BgenPttrnLayer1background"><rect width="1" height="1" id="BgenPttrnBackground1" class="color_1 fill_color_1" fill="#f194cc"></rect></g></g></pattern><pattern x="0" y="0" width="42" height="80" patternUnits="userSpaceOnUse" id="BgenPttrnLayer2" patternTransform="matrix(1,0,0,1,0,0)"><g id="PatternRootContent2"><g id="BgenPttrnLayer2Element2"><use xlink:href="#BgenPttrnElement2" x="22" y="-44.111000061035156" transform="translate(42, -20) scale(1) translate(-42, 20) rotate(0, 42, -20)"></use><use xlink:href="#BgenPttrnElement2" x="-20" y="-44.111000061035156" transform="translate(0, -20) scale(1) translate(0, 20) rotate(0, 0, -20)"></use><use xlink:href="#BgenPttrnElement2" x="1" y="-4.111000061035156" transform="translate(21, 20) scale(1) translate(-21, -20) rotate(0, 21, 20)"></use><use xlink:href="#BgenPttrnElement2" x="-41" y="-4.111000061035156" transform="translate(-21, 20) scale(1) translate(21, -20) rotate(0, -21, 20)"></use><use xlink:href="#BgenPttrnElement2" x="22" y="35.888999938964844" transform="translate(42, 60) scale(1) translate(-42, -60) rotate(0, 42, 60)"></use><use xlink:href="#BgenPttrnElement2" x="-20" y="35.888999938964844" transform="translate(0, 60) scale(1) translate(0, -60) rotate(0, 0, 60)"></use><use xlink:href="#BgenPttrnElement2" x="1" y="75.88899993896484" transform="translate(21, 100) scale(1) translate(-21, -100) rotate(0, 21, 100)"></use><use xlink:href="#BgenPttrnElement2" x="1" y="75.88899993896484" transform="translate(21, 100) scale(1) translate(-21, -100) rotate(0, 21, 100)"></use></g></g></pattern><symbol id="BgenPttrnElement2"><g class="color_3 fill_color_3" fill="#3b3939"><path d="M40,20L20,30L0,20L0,38.22200012207031L20,48.22200012207031L40,38.22200012207031Z" transform="matrix(1,0,0,1,0,0)"></path><path d="M0,28.222000122070312L20,18.222000122070312L40,28.222000122070312L40,10L20,0L0,10Z" transform="matrix(1,0,0,1,0,0)"></path></g></symbol></defs><rect width="100%" height="100%" id="BgenPttrnRctLayer1" fill="url(&quot;#BgenPttrnLayer1&quot;)"></rect><rect width="100%" height="100%" id="BgenPttrnRctLayer2" fill="url(&quot;#BgenPttrnLayer2&quot;)"></rect></svg>